<?xml version="1.0" encoding="UTF-8" standalone="no"?>
<!-- Created with Inkscape (http://www.inkscape.org/) -->

<svg
   version="1.1"
   id="svg1"
   width="500"
   height="500"
   viewBox="0 0 500 500"
   sodipodi:docname="tertericon.png"
   inkscape:version="1.3 (0e150ed6c4, 2023-07-21)"
   inkscape:dataloss="true"
   xmlns:inkscape="http://www.inkscape.org/namespaces/inkscape"
   xmlns:sodipodi="http://sodipodi.sourceforge.net/DTD/sodipodi-0.dtd"
   xmlns="http://www.w3.org/2000/svg"
   xmlns:svg="http://www.w3.org/2000/svg">
  <defs
     id="defs1" />
  <sodipodi:namedview
     id="namedview1"
     pagecolor="#505050"
     bordercolor="#eeeeee"
     borderopacity="1"
     inkscape:showpageshadow="0"
     inkscape:pageopacity="0"
     inkscape:pagecheckerboard="0"
     inkscape:deskcolor="#505050"
     inkscape:zoom="0.637"
     inkscape:cx="129.51334"
     inkscape:cy="355.573"
     inkscape:window-width="1368"
     inkscape:window-height="860"
     inkscape:window-x="-6"
     inkscape:window-y="-6"
     inkscape:window-maximized="1"
     inkscape:current-layer="svg1" />
  <g
     inkscape:groupmode="layer"
     id="layer1"
     inkscape:label="pp">
    <circle
       style="fill:#bae8ff;fill-opacity:1;stroke:none;stroke-width:9.84067;stroke-linecap:round;paint-order:stroke fill markers"
       id="path2"
       cx="250"
       cy="250"
       r="235" />
    <g
       id="svgGroup"
       stroke-linecap="round"
       fill-rule="evenodd"
       font-size="12px"
       stroke="#000"
       stroke-width="0"
       fill="#000"
       style="fill:#000000;fill-opacity:1;stroke:#000000;stroke-width:0"
       transform="matrix(3.3249871,1.9196822,-1.9196822,3.3249871,220.09926,72.80207)">
      <path
         d="m 12.72,2 h 35.8 a 8.457,8.457 0 0 0 1.01,-0.056 q 0.51,-0.062 0.933,-0.19 a 3.688,3.688 0 0 0 0.682,-0.279 q 0.975,-0.525 1.75,-1 A 3.238,3.238 0 0 1 54.347,0.013 3.992,3.992 0 0 1 54.67,0 4.05,4.05 0 0 1 55.467,0.074 q 0.702,0.141 1.178,0.551 a 2.582,2.582 0 0 1 0.518,0.629 q 0.184,0.305 0.329,0.694 A 6.495,6.495 0 0 1 57.72,2.7 l 3.4,15.8 a 5.09,5.09 0 0 1 0.071,0.433 q 0.065,0.539 -0.018,0.965 a 1.94,1.94 0 0 1 -0.178,0.527 1.632,1.632 0 0 1 -0.786,0.737 q -0.257,0.121 -0.579,0.186 a 3.214,3.214 0 0 1 -0.01,0.002 q -0.313,0.07 -0.605,0.07 a 2.188,2.188 0 0 1 -1.02,-0.245 2.095,2.095 0 0 1 -0.638,-0.521 Q 57.152,20.411 56.98,20.086 A 4.492,4.492 0 0 1 56.82,19.75 Q 54.841,14.97 53.305,12.159 A 30.101,30.101 0 0 0 52.67,11.05 Q 50.92,8.15 49.045,7.15 47.426,6.287 45.082,6.169 A 15.144,15.144 0 0 0 44.32,6.15 h -7.9 V 64.9 a 3.009,3.009 0 0 0 0.089,0.755 2.135,2.135 0 0 0 0.561,0.995 3.077,3.077 0 0 0 0.73,0.533 q 0.482,0.258 1.12,0.417 l 3.3,0.6 a 4.009,4.009 0 0 1 0.786,0.289 q 1.114,0.563 1.114,1.711 0,1.538 -1.789,1.762 A 5.34,5.34 0 0 1 41.67,72 h -22.1 a 5.003,5.003 0 0 1 -0.652,-0.039 q -0.754,-0.1 -1.183,-0.448 A 1.531,1.531 0 0 1 17.72,71.5 1.596,1.596 0 0 1 17.125,70.347 2.027,2.027 0 0 1 17.12,70.2 1.756,1.756 0 0 1 17.933,68.665 q 0.309,-0.21 0.735,-0.358 A 4.73,4.73 0 0 1 19.02,68.2 l 3.3,-0.6 q 0.901,-0.225 1.478,-0.648 A 2.663,2.663 0 0 0 24.145,66.65 2.179,2.179 0 0 0 24.702,65.574 3.197,3.197 0 0 0 24.77,64.9 V 6.15 h -7.85 q -2.85,0 -4.725,1 A 6.574,6.574 0 0 0 10.806,8.167 Q 9.664,9.237 8.57,11.05 a 34.525,34.525 0 0 0 -1.097,1.978 q -1.046,2.024 -2.28,4.889 A 137.81,137.81 0 0 0 4.42,19.75 4.045,4.045 0 0 1 4.096,20.365 Q 3.891,20.679 3.648,20.896 A 1.957,1.957 0 0 1 3.245,21.175 2.215,2.215 0 0 1 2.274,21.419 Q 1.939,21.428 1.57,21.35 A 2.377,2.377 0 0 1 0.984,21.151 1.645,1.645 0 0 1 0.245,20.425 Q -0.071,19.814 0.021,18.867 A 5.422,5.422 0 0 1 0.07,18.5 L 3.47,2.7 A 7.17,7.17 0 0 1 3.734,1.912 Q 4.076,1.068 4.565,0.629 A 2.138,2.138 0 0 1 4.57,0.625 Q 5.16,0.098 6.178,0.015 A 4.855,4.855 0 0 1 6.57,0 3.555,3.555 0 0 1 7.528,0.124 2.954,2.954 0 0 1 8.32,0.475 q 0.7,0.444 1.618,0.931 a 34.698,34.698 0 0 0 0.132,0.069 q 0.758,0.398 1.891,0.495 A 8.983,8.983 0 0 0 12.72,2 Z"
         vector-effect="non-scaling-stroke"
         id="path1"
         style="fill:#000000;fill-opacity:1" />
    </g>
  </g>
</svg>
